<svg xmlns="http://www.w3.org/2000/svg" xmlns:xlink="http://www.w3.org/1999/xlink" width="400" height="400" viewBox="0 0 400 400"><g data-name="icon" fill="#607D8B" data="id:7520374" transform="translate(-82.96871410388454, -82.98186135835172) scale(5.659234605991643)">
    
 <path d="m81.023 31.766h-8.3047l-3.7109-8.4219c-0.12109-0.27344-0.38672-0.45312-0.68359-0.46484-0.3125-0.011718-0.57812 0.14453-0.71875 0.40625l-7.5938 13.98-3.0898-5.1211c-0.14062-0.23438-0.39453-0.37891-0.66797-0.37891h-13.422c-0.30469 0-0.58203 0.17578-0.71094 0.45312l-3.1953 6.9414-4.2852-15.707c-0.089844-0.32812-0.38281-0.5625-0.72266-0.57422-0.34375-0.019531-0.64844 0.19531-0.76562 0.51562l-3.5977 9.9219-10.578-0.007812c-0.43359 0-0.78125 0.35156-0.78125 0.78125 0 0.42969 0.34766 0.78125 0.78125 0.78125h11.129c0.32812 0 0.62109-0.20703 0.73438-0.51562l2.9453-8.1211 4.2031 15.402c0.085938 0.31641 0.36328 0.54688 0.69141 0.57422 0.019531 0 0.042968 0.003906 0.0625 0.003906 0.30469 0 0.58203-0.17578 0.71094-0.45312l3.8867-8.4336h12.48l3.5664 5.9102c0.14453 0.23828 0.38672 0.39844 0.6875 0.37891 0.28125-0.007813 0.53516-0.16016 0.66797-0.40625l7.4844-13.777 3.2734 7.4336c0.125 0.28516 0.40625 0.46484 0.71484 0.46484h8.8125c0.43359 0 0.78125-0.35156 0.78125-0.78125-0.003906-0.4375-0.35156-0.78516-0.78516-0.78516z"/>
 <path d="m73.18 47.5c-1.0703 0-2.0781 0.41797-2.8359 1.1758l-15.973 15.973c-0.14844 0.14844-0.34375 0.23047-0.55078 0.23047l-9.7188-0.003906c-0.42969 0-0.78125-0.35156-0.78125-0.78125s0.35156-0.78125 0.78125-0.78125h9.3906l2.4453-2.4414v-2.7617c0-0.83203-0.32422-1.6094-0.91406-2.1953-0.58984-0.58594-1.375-0.90625-2.2031-0.89453l-14.652 0.13281c-1.0156 0.007812-1.9648 0.41016-2.6797 1.125l-12.004 12.008c1.1172 0.99219 3.4648 3.332 8.7656 8.8438l7.9102-7.9102c0.14844-0.14844 0.34375-0.23047 0.55078-0.23047h17.41l17.895-17.895c0.32422-0.32422 0.5-0.75 0.5-1.207s-0.17969-0.88281-0.5-1.207c-0.75781-0.76172-1.7656-1.1797-2.8359-1.1797z"/>

    </g></svg>